<?xml version="1.0" encoding="utf-8"?>
<!-- Generator: Adobe Illustrator 18.0.0, SVG Export Plug-In . SVG Version: 6.00 Build 0)  -->
<!DOCTYPE svg PUBLIC "-//W3C//DTD SVG 1.1//EN" "http://www.w3.org/Graphics/SVG/1.1/DTD/svg11.dtd">
<svg version="1.1" id="Layer_1" xmlns="http://www.w3.org/2000/svg" xmlns:xlink="http://www.w3.org/1999/xlink" x="0px" y="0px"
	 viewBox="0 0 157 25" enable-background="new 0 0 157 25" xml:space="preserve">
<polygon fill="#49A9DF" points="0,1.5 0,17.8 3.2,17.8 3.2,4.7 11.5,4.7 11.5,17.8 24.5,17.8 24.5,1.5 "/>
<polygon fill="#3D8EBB" points="11.5,17.8 4.9,24.4 4.9,11.3 11.5,4.7 "/>
<g>
	<path fill="#414042" d="M39.1,14.9c-0.1,0.5-0.4,1-0.7,1.4c-0.4,0.5-0.8,0.8-1.6,1.1c-0.7,0.2-1.6,0.5-2.6,0.5c-0.5,0-1,0-1.4-0.1
		c-0.5-0.1-1-0.2-1.3-0.6c-0.4-0.2-0.7-0.6-1-1c-0.2-0.4-0.4-0.8-0.5-1.4h2.6c0.1,0.5,0.4,0.8,0.7,1.1c0.4,0.2,0.8,0.2,1.2,0.2
		c0.7,0,1.3-0.2,1.7-0.7c0.4-0.5,0.5-1.1,0.5-1.7v-1.3l0,0c-0.2,0.5-0.7,0.8-1.2,1.1c-0.5,0.2-1.1,0.4-1.7,0.4
		c-0.7,0-1.3-0.1-1.9-0.4c-0.5-0.2-1-0.6-1.3-1.1s-0.6-1-0.7-1.6s-0.2-1.2-0.2-1.9c0-0.6,0.1-1.2,0.2-1.8s0.5-1.1,0.8-1.6
		c0.4-0.5,0.8-0.8,1.3-1.1c0.5-0.2,1.1-0.4,1.8-0.4c0.6,0,1.2,0.1,1.7,0.4c0.5,0.2,0.8,0.6,1.2,1.2l0,0V4.4h2.5v9.1
		C39.3,14,39.1,14.4,39.1,14.9z M35.4,11.7c0.2-0.1,0.5-0.4,0.7-0.6c0.2-0.2,0.4-0.5,0.4-0.8c0.1-0.4,0.1-0.7,0.1-1
		c0-0.4,0-0.8-0.1-1.1c-0.1-0.4-0.2-0.7-0.4-1C36,7,35.8,6.8,35.4,6.5c-0.2-0.1-0.7-0.2-1.1-0.2c-0.4,0-0.7,0.1-1,0.2
		c-0.2,0.1-0.5,0.4-0.7,0.6c-0.1,0.1-0.2,0.5-0.2,0.7c-0.1,0.4-0.1,0.7-0.1,1.1s0,0.7,0.1,1.1c0.1,0.4,0.2,0.7,0.4,1
		c0.1,0.2,0.4,0.5,0.7,0.7c0.1,0.1,0.5,0.2,1,0.2C34.8,11.9,35.2,11.8,35.4,11.7z"/>
	<path fill="#414042" d="M40.6,7.5c0-0.6,0.2-1.2,0.5-1.6s0.6-0.7,1.1-1c0.4-0.2,1-0.5,1.4-0.5c0.5-0.1,1.1-0.1,1.6-0.1s1,0,1.4,0.1
		c0.6-0.1,1.1,0,1.4,0.1c0.4,0.2,0.7,0.5,1,0.8c0.2,0.4,0.4,0.8,0.4,1.4v5c0,0.5,0,0.8,0.1,1.2c0,0.4,0.1,0.7,0.2,1h-2.6
		c0-0.1-0.1-0.2-0.1-0.5c0-0.1,0-0.4-0.1-0.5c-0.4,0.5-1,0.7-1.4,1c-0.6,0.1-1.2,0.2-1.8,0.2c-0.5,0-1,0-1.3-0.1
		c-0.4-0.1-0.7-0.2-1.1-0.5c-0.2-0.2-0.5-0.5-0.7-1c-0.1-0.4-0.2-0.8-0.2-1.3s0.1-1,0.2-1.3c0.2-0.4,0.5-0.6,0.7-0.8
		c0.4-0.2,0.7-0.4,1.1-0.5c0.4-0.1,0.8-0.2,1.2-0.2c0.4-0.1,0.8-0.1,1.2-0.1s0.7-0.1,1.1-0.1C46,8.2,46.2,8.1,46.5,8
		c0.2-0.2,0.4-0.5,0.4-0.7s0-0.5-0.1-0.7c-0.1-0.1-0.2-0.2-0.4-0.4C46.2,6,46,6,45.9,5.9c-0.2,0-0.5,0-0.7,0c-0.5,0-1,0.1-1.2,0.4
		c-0.2,0.2-0.5,0.6-0.5,1.1L40.6,7.5L40.6,7.5z M46.7,9.4c-0.1,0.1-0.2,0.1-0.4,0.2c-0.1,0-0.4,0.1-0.5,0.1c-0.2,0-0.4,0.1-0.6,0.1
		s-0.4,0-0.6,0.1c-0.2,0-0.4,0.1-0.6,0.1c-0.2,0.1-0.4,0.1-0.5,0.2c-0.2,0.1-0.4,0.2-0.5,0.5C43,11,43,11.2,43,11.4s0,0.5,0.1,0.6
		c0.1,0.1,0.2,0.2,0.4,0.4c0.1,0.1,0.4,0.1,0.5,0.2c0.2,0,0.4,0,0.6,0c0.5,0,1-0.1,1.2-0.2c0.2-0.1,0.5-0.4,0.6-0.6
		c0.1-0.2,0.2-0.5,0.2-0.7c0-0.2,0-0.5,0-0.6V9.4H46.7z"/>
	<path fill="#414042" d="M56.2,4.5v1.8h-1.9v4.8c0,0.5,0.1,0.7,0.2,1c0.1,0.1,0.5,0.2,1,0.2c0.1,0,0.2,0,0.5,0c0.1,0,0.2,0,0.4,0
		v1.9c-0.2,0-0.5,0.1-0.7,0.1s-0.5,0-0.8,0s-0.8,0-1.2-0.1c-0.4,0-0.7-0.1-1-0.4c-0.2-0.1-0.5-0.4-0.7-0.7c-0.1-0.2-0.2-0.7-0.2-1.2
		V6.3h-1.6V4.5h1.6V3.9l2.6-2.6v3.4L56.2,4.5L56.2,4.5z"/>
	<path fill="#414042" d="M59.6,11.8c0.4,0.4,1,0.6,1.8,0.6c0.5,0,1-0.1,1.4-0.4c0.4-0.2,0.6-0.6,0.7-0.8h2.4c-0.4,1.2-1,2-1.8,2.5
		c-0.8,0.5-1.7,0.7-2.9,0.7c-0.7,0-1.4-0.1-2-0.4c-0.6-0.2-1.1-0.6-1.6-1.1c-0.4-0.5-0.7-1-1-1.6c-0.2-0.6-0.4-1.3-0.4-2
		c0-0.7,0.1-1.4,0.4-2c0.2-0.6,0.6-1.2,1-1.6c0.5-0.5,1-0.8,1.6-1.1c0.6-0.2,1.3-0.4,2-0.4c0.8,0,1.6,0.1,2.2,0.5
		C64,5.2,64.5,5.6,65,6.2c0.4,0.5,0.7,1.2,0.8,1.8c0.1,0.7,0.2,1.4,0.2,2.2h-7C59,10.8,59.2,11.4,59.6,11.8z M62.6,6.8
		c-0.4-0.4-0.8-0.5-1.4-0.5c-0.4,0-0.8,0.1-1.1,0.2c-0.2,0.1-0.5,0.4-0.7,0.5c-0.1,0.2-0.2,0.5-0.4,0.7c-0.1,0.2-0.1,0.5-0.1,0.6
		h4.3C63.2,7.6,62.9,7.1,62.6,6.8z"/>
	<path fill="#414042" d="M74.9,14.2l-1.8-6.5l0,0l-1.7,6.5h-2.8l-3.1-9.7h2.9l1.8,6.6l0,0l1.6-6.6h2.6l1.7,6.6l0,0l1.8-6.6h2.8
		l-3,9.7H74.9z"/>
	<path fill="#414042" d="M80.8,7.5c0-0.6,0.2-1.2,0.5-1.6c0.2-0.4,0.6-0.7,1.1-1c0.4-0.2,1-0.5,1.4-0.5c0.5-0.1,1.1-0.1,1.6-0.1
		c0.5,0,1,0,1.4,0.1c0.5,0.1,1,0.2,1.3,0.4c0.4,0.2,0.7,0.5,1,0.8c0.2,0.4,0.4,0.8,0.4,1.4v5c0,0.5,0,0.8,0.1,1.2
		c0,0.4,0.1,0.7,0.2,1h-2.6c0-0.1-0.1-0.2-0.1-0.5c0-0.1,0-0.4-0.1-0.5c-0.4,0.5-1,0.7-1.4,1c-0.6,0.1-1.2,0.2-1.8,0.2
		c-0.5,0-1,0-1.3-0.1c-0.4-0.1-0.7-0.2-1.1-0.5c-0.2-0.2-0.5-0.5-0.7-1c-0.1-0.4-0.2-0.8-0.2-1.3c0-0.5,0.1-1,0.2-1.3
		c0.2-0.4,0.5-0.6,0.7-0.8C81.7,9.3,82,9.2,82.4,9c0.4-0.1,0.8-0.2,1.2-0.2c0.4-0.1,0.8-0.1,1.2-0.1c0.4,0,0.7-0.1,1.1-0.1
		c0.2-0.1,0.5-0.2,0.7-0.4c0.1-0.1,0.2-0.4,0.2-0.6c0-0.2,0-0.5-0.1-0.7c-0.1-0.1-0.2-0.2-0.4-0.4c-0.1-0.1-0.4-0.1-0.5-0.2
		c-0.2,0-0.5,0-0.7,0c-0.5,0-1,0.1-1.2,0.4c-0.2,0.2-0.5,0.6-0.5,1.1L80.8,7.5L80.8,7.5z M86.9,9.4c-0.1,0.1-0.2,0.1-0.4,0.2
		c-0.1,0-0.4,0.1-0.5,0.1c-0.2,0-0.4,0.1-0.6,0.1s-0.4,0-0.6,0.1c-0.2,0-0.4,0.1-0.6,0.1c-0.2,0.1-0.4,0.1-0.5,0.2
		c-0.1,0.1-0.2,0.2-0.4,0.4c-0.1,0.1-0.1,0.4-0.1,0.6c0,0.2,0,0.5,0.1,0.6c0.1,0.1,0.2,0.2,0.4,0.4c0.1,0.1,0.4,0.1,0.5,0.2
		c0.2,0,0.4,0,0.6,0c0.5,0,1-0.1,1.2-0.2s0.5-0.4,0.6-0.6c0.1-0.2,0.2-0.5,0.2-0.7c0-0.2,0-0.5,0-0.6L86.9,9.4L86.9,9.4z"/>
	<path fill="#414042" d="M94.5,17.1c-0.5,0.4-1.2,0.5-2.2,0.5c-0.2,0-0.5,0-0.8,0c-0.2,0-0.5,0-0.8-0.1v-2.2c0.2,0,0.5,0,0.7,0.1
		c0.2,0,0.5,0,0.8,0s0.6-0.1,0.8-0.4c0.1-0.2,0.2-0.5,0.2-0.8c0-0.2,0-0.4-0.1-0.6l-3.4-9.1h2.9l2.2,6.6l0,0L97,4.4h2.8l-4.1,11
		C95.3,16.2,95,16.7,94.5,17.1z"/>
</g>
<g>
	<path fill="#49A9DF" d="M100.1,6.3c0.1-0.5,0.4-0.8,0.7-1.1c0.4-0.2,0.7-0.5,1.2-0.6s1-0.2,1.6-0.2c0.4,0,0.8,0,1.3,0.1
		c0.4,0.1,0.8,0.2,1.2,0.5c0.4,0.2,0.6,0.5,0.8,1c0.2,0.4,0.4,1,0.4,1.6v5.2c0,0.5,0.2,0.7,0.7,0.7c0.1,0,0.2,0,0.4-0.1v1
		c-0.1,0-0.2,0-0.4,0c-0.1,0-0.2,0-0.4,0c-0.2,0-0.5,0-0.7-0.1c-0.1-0.1-0.4-0.2-0.4-0.4c-0.1-0.1-0.1-0.4-0.2-0.5
		c0-0.2,0-0.5,0-0.7l0,0c-0.2,0.4-0.5,0.6-0.6,0.8c-0.2,0.2-0.5,0.5-0.7,0.6c-0.2,0.1-0.6,0.2-1,0.4c-0.4,0.1-0.7,0.1-1.2,0.1
		s-0.8,0-1.3-0.1c-0.4-0.1-0.7-0.2-1.1-0.5c-0.2-0.2-0.5-0.5-0.7-0.8c-0.1-0.4-0.2-0.8-0.2-1.3c0-0.7,0.1-1.2,0.5-1.6
		c0.2-0.4,0.7-0.7,1.2-0.8c0.5-0.2,1.1-0.4,1.7-0.4c0.6-0.1,1.2-0.1,1.9-0.2c0.2,0,0.5,0,0.7-0.1c0.2,0,0.4-0.1,0.5-0.2
		c0.1-0.1,0.2-0.2,0.2-0.4s0.1-0.4,0.1-0.6c0-0.4-0.1-0.7-0.2-1c-0.5-0.2-0.6-0.5-0.8-0.6c-0.2-0.1-0.5-0.2-0.8-0.4
		c-0.4,0-0.6-0.1-1-0.1c-0.7,0-1.3,0.1-1.8,0.5c-0.5,0.5-0.8,1.1-0.8,1.8h-1.2C99.8,7.1,99.9,6.6,100.1,6.3z M106,9.2
		c-0.1,0.1-0.2,0.2-0.5,0.2c-0.2,0.1-0.4,0.1-0.6,0.1c-0.5,0.1-1.1,0.1-1.6,0.2c-0.5,0.1-1.1,0.1-1.4,0.4c-0.5,0.1-0.8,0.4-1.1,0.6
		c-0.2,0.2-0.4,0.6-0.4,1.1c0,0.2,0,0.6,0.1,0.8c0.1,0.2,0.2,0.5,0.5,0.6c0.2,0.1,0.5,0.2,0.7,0.4c0.2,0.1,0.5,0.1,0.8,0.1
		c0.5,0,0.8-0.1,1.3-0.2c0.4-0.1,0.8-0.4,1.1-0.6c0.4-0.2,0.6-0.6,0.7-1c0.1-0.4,0.2-0.8,0.2-1.3L106,9.2L106,9.2L106,9.2z"/>
	<path fill="#49A9DF" d="M110,4.7v1.8l0,0c0.2-0.7,0.7-1.2,1.3-1.6c0.6-0.4,1.3-0.6,2.2-0.6c0.7,0,1.3,0.1,1.9,0.4
		c0.5,0.2,1,0.6,1.3,1.1c0.5,0.6,0.7,1.2,1,1.8c0.1,0.6,0.2,1.3,0.2,1.9s-0.1,1.4-0.2,2c-0.1,0.6-0.5,1.2-0.8,1.7
		c-0.4,0.5-0.8,0.8-1.3,1.1c-0.5,0.2-1.2,0.4-1.9,0.4c-0.4,0-0.7,0-1.1-0.1c-0.4-0.1-0.7-0.2-1-0.4c-0.2-0.1-0.6-0.4-0.8-0.7
		c-0.2-0.2-0.4-0.6-0.5-1l0,0v5.4H109V4.7H110L110,4.7z M116.5,8.1c-0.1-0.5-0.4-1-0.6-1.3c-0.2-0.4-0.5-0.7-1-1
		c-0.4-0.2-0.8-0.4-1.4-0.4c-0.7,0-1.2,0.1-1.7,0.4c-0.5,0.2-0.8,0.5-1.1,1c-0.2,0.4-0.5,0.8-0.6,1.3S110,9.2,110,9.6
		c0,0.5,0,1,0.1,1.4s0.4,1,0.6,1.3c0.2,0.4,0.6,0.7,1.1,1c0.5,0.2,1,0.4,1.6,0.4c0.6,0,1.1-0.1,1.4-0.4c0.4-0.2,0.7-0.6,1-1
		c0.2-0.4,0.5-0.8,0.6-1.3c0.1-0.5,0.1-1,0.1-1.4C116.7,9,116.6,8.6,116.5,8.1z"/>
	<path fill="#49A9DF" d="M120.1,1v1.9h-1.2V1H120.1z M120.1,4.7v9.7h-1.2V4.7H120.1z"/>
</g>
<g>
	<rect x="124" y="3.4" fill="#F4B723" width="33" height="12.1"/>
	<g>
		<path fill="#FFFFFF" d="M134.1,7.6c0.5,0.5,0.8,1.1,0.8,1.9c0,0.8-0.2,1.4-0.7,1.9c-0.5,0.5-1.2,0.7-2.2,0.7h-1.8V6.9h1.8
			C132.9,6.9,133.6,7.2,134.1,7.6z M133.3,10.7c0.3-0.3,0.4-0.7,0.4-1.2c0-0.5-0.2-0.9-0.4-1.2c-0.3-0.3-0.7-0.4-1.3-0.4h-0.7v3.2
			h0.7C132.6,11.1,133,11,133.3,10.7z"/>
		<path fill="#FFFFFF" d="M140.2,11.4c-0.5,0.5-1.2,0.8-2,0.8s-1.4-0.3-2-0.8c-0.5-0.5-0.8-1.1-0.8-1.9c0-0.8,0.3-1.4,0.8-1.9
			c0.5-0.5,1.2-0.8,2-0.8s1.4,0.3,2,0.8c0.5,0.5,0.8,1.1,0.8,1.9C141,10.3,140.8,10.9,140.2,11.4z M139.9,9.5c0-0.5-0.2-0.9-0.5-1.2
			c-0.3-0.3-0.7-0.5-1.1-0.5c-0.4,0-0.8,0.2-1.1,0.5c-0.3,0.3-0.5,0.7-0.5,1.2s0.2,0.9,0.5,1.2c0.3,0.3,0.7,0.5,1.1,0.5
			c0.4,0,0.8-0.2,1.1-0.5C139.7,10.4,139.9,10,139.9,9.5z"/>
		<path fill="#FFFFFF" d="M144.4,11.1c0.6,0,1-0.2,1.4-0.7l0.8,0.8c-0.6,0.7-1.3,1-2.1,1c-0.8,0-1.5-0.2-2-0.8
			c-0.5-0.5-0.8-1.1-0.8-1.9s0.3-1.4,0.8-1.9c0.5-0.5,1.2-0.8,1.9-0.8c0.8,0,1.6,0.3,2.1,1l-0.7,0.8c-0.4-0.5-0.8-0.7-1.4-0.7
			c-0.5,0-0.8,0.2-1.1,0.4c-0.3,0.3-0.5,0.7-0.5,1.1c0,0.5,0.2,0.9,0.5,1.2C143.6,11,144,11.1,144.4,11.1z"/>
		<path fill="#FFFFFF" d="M148.7,8c-0.1,0.1-0.2,0.2-0.2,0.4c0,0.2,0.1,0.3,0.2,0.4c0.2,0.1,0.5,0.2,0.9,0.3
			c0.5,0.1,0.9,0.3,1.1,0.5c0.3,0.2,0.4,0.6,0.4,1.1s-0.2,0.8-0.5,1.1c-0.4,0.3-0.8,0.4-1.4,0.4c-0.8,0-1.6-0.3-2.2-0.9l0.7-0.8
			c0.6,0.5,1.1,0.7,1.6,0.7c0.2,0,0.4-0.1,0.5-0.2c0.1-0.1,0.2-0.2,0.2-0.4c0-0.2-0.1-0.3-0.2-0.4c-0.1-0.1-0.4-0.2-0.8-0.3
			c-0.6-0.2-1.1-0.3-1.3-0.6s-0.4-0.6-0.4-1.1c0-0.5,0.2-0.9,0.5-1.1c0.4-0.3,0.8-0.4,1.3-0.4c0.4,0,0.7,0.1,1.1,0.2
			c0.4,0.1,0.7,0.3,0.9,0.5l-0.6,0.8c-0.5-0.3-0.9-0.5-1.4-0.5C148.9,7.8,148.8,7.9,148.7,8z"/>
	</g>
</g>
</svg>
