<?xml version="1.0" encoding="utf-8"?>
<!-- Generator: Adobe Illustrator 18.0.0, SVG Export Plug-In . SVG Version: 6.00 Build 0)  -->
<!DOCTYPE svg PUBLIC "-//W3C//DTD SVG 1.1//EN" "http://www.w3.org/Graphics/SVG/1.1/DTD/svg11.dtd">
<svg version="1.1" id="Layer_1" xmlns="http://www.w3.org/2000/svg" xmlns:xlink="http://www.w3.org/1999/xlink" x="0px" y="0px"
	 viewBox="11 0 523 200" enable-background="new 11 0 523 200" xml:space="preserve">
<g>
	<polygon fill="#FFFFFF" points="11,62.6 11,117 21.8,117 21.8,73.4 49.4,73.4 49.4,117 92.6,117 92.6,62.6 	"/>
	<polygon opacity="0.7" fill="#FFFFFF" enable-background="new    " points="49.4,117 27.4,139 27.4,95.4 49.4,73.4 	"/>
	<g>
		<path fill="#FFFFFF" d="M141.4,107.4c-0.4,1.6-1.2,3.2-2.4,4.8c-1.2,1.6-2.8,2.8-5.2,3.6c-2.4,0.8-5.2,1.6-8.8,1.6
			c-1.6,0-3.2,0-4.8-0.4c-1.6-0.4-3.2-0.8-4.4-2c-1.2-0.8-2.4-2-3.2-3.2c-0.8-1.2-1.2-2.8-1.6-4.8h8.8c0.4,1.6,1.2,2.8,2.4,3.6
			c1.2,0.8,2.8,0.8,4,0.8c2.4,0,4.4-0.8,5.6-2.4c1.2-1.6,1.6-3.6,1.6-5.6V99l0,0c-0.8,1.6-2.4,2.8-4,3.6c-1.6,0.8-3.6,1.2-5.6,1.2
			c-2.4,0-4.4-0.4-6.4-1.2c-1.6-0.8-3.2-2-4.4-3.6s-2-3.2-2.4-5.2s-0.8-4-0.8-6.4c0-2,0.4-4,0.8-6s1.6-3.6,2.8-5.2
			c1.2-1.6,2.8-2.8,4.4-3.6c1.6-0.8,3.6-1.2,6-1.2c2,0,4,0.4,5.6,1.2c1.6,0.8,2.8,2,4,4l0,0v-4.4h8.4v30.4
			C141.8,104.2,141.4,105.8,141.4,107.4z M129,96.6c0.8-0.4,1.6-1.2,2.4-2c0.8-0.8,1.2-1.6,1.2-2.8c0.4-1.2,0.4-2.4,0.4-3.2
			c0-1.2,0-2.8-0.4-3.6c-0.4-1.2-0.8-2.4-1.2-3.2c-0.4-0.8-1.2-1.6-2.4-2.4c-0.8-0.4-2.4-0.8-3.6-0.8s-2.4,0.4-3.2,0.8
			c-0.8,0.4-1.6,1.2-2.4,2c-0.4,0.4-0.8,1.6-0.8,2.4c-0.4,1.2-0.4,2.4-0.4,3.6c0,1.2,0,2.4,0.4,3.6s0.8,2.4,1.2,3.2
			c0.4,0.8,1.2,1.6,2.4,2.4c0.4,0.4,1.6,0.8,3.2,0.8C127,97.4,128.2,97,129,96.6z"/>
		<path fill="#FFFFFF" d="M146.2,82.6c0-2,0.8-4,1.6-5.2s2-2.4,3.6-3.2c1.2-0.8,3.2-1.6,4.8-1.6c1.6-0.4,3.6-0.4,5.2-0.4
			c1.6,0,3.2,0,4.8,0.4c2-0.4,3.6,0,4.8,0.4c1.2,0.8,2.4,1.6,3.2,2.8c0.8,1.2,1.2,2.8,1.2,4.8v16.8c0,1.6,0,2.8,0.4,4
			c0,1.2,0.4,2.4,0.8,3.2h-8.8c0-0.4-0.4-0.8-0.4-1.6c0-0.4,0-1.2-0.4-1.6c-1.2,1.6-3.2,2.4-4.8,3.2c-2,0.4-4,0.8-6,0.8
			c-1.6,0-3.2,0-4.4-0.4c-1.2-0.4-2.4-0.8-3.6-1.6c-0.8-0.8-1.6-1.6-2.4-3.2c-0.4-1.2-0.8-2.8-0.8-4.4c0-1.6,0.4-3.2,0.8-4.4
			c0.8-1.2,1.6-2,2.4-2.8c1.2-0.8,2.4-1.2,3.6-1.6c1.2-0.4,2.8-0.8,4-0.8c1.2-0.4,2.8-0.4,4-0.4s2.4-0.4,3.6-0.4
			c0.8-0.4,1.6-0.8,2.4-1.2c0.8-0.8,1.2-1.6,1.2-2.4c0-0.8,0-1.6-0.4-2.4c-0.4-0.4-0.8-0.8-1.2-1.2c-0.4-0.4-1.2-0.4-1.6-0.8
			c-0.8,0-1.6,0-2.4,0c-1.6,0-3.2,0.4-4,1.2c-0.8,0.8-1.6,2-1.6,3.6L146.2,82.6L146.2,82.6z M166.6,89c-0.4,0.4-0.8,0.4-1.2,0.8
			c-0.4,0-1.2,0.4-1.6,0.4c-0.8,0-1.2,0.4-2,0.4s-1.2,0-2,0.4c-0.8,0-1.2,0.4-2,0.4c-0.8,0.4-1.2,0.4-1.6,0.8
			c-0.8,0.4-1.2,0.8-1.6,1.6c-0.4,0.4-0.4,1.2-0.4,2c0,0.8,0,1.6,0.4,2c0.4,0.4,0.8,0.8,1.2,1.2s1.2,0.4,1.6,0.8c0.8,0,1.2,0,2,0
			c1.6,0,3.2-0.4,4-0.8c0.8-0.4,1.6-1.2,2-2s0.8-1.6,0.8-2.4s0-1.6,0-2V89H166.6z"/>
		<path fill="#FFFFFF" d="M198.2,72.6v6h-6.4v16c0,1.6,0.4,2.4,0.8,3.2c0.4,0.4,1.6,0.8,3.2,0.8c0.4,0,0.8,0,1.6,0
			c0.4,0,0.8,0,1.2,0v6.4c-0.8,0-1.6,0.4-2.4,0.4c-0.8,0-1.6,0-2.8,0s-2.8,0-4-0.4c-1.2,0-2.4-0.4-3.2-1.2c-0.8-0.4-1.6-1.2-2.4-2.4
			c-0.4-0.8-0.8-2.4-0.8-4V78.6h-5.2v-6h5.2v-2l8.8-8.8V73L198.2,72.6L198.2,72.6z"/>
		<path fill="#FFFFFF" d="M209.4,97c1.2,1.2,3.2,2,6,2c1.6,0,3.2-0.4,4.8-1.2c1.2-0.8,2-2,2.4-2.8h8c-1.2,4-3.2,6.8-6,8.4
			s-5.6,2.4-9.6,2.4c-2.4,0-4.8-0.4-6.8-1.2c-2-0.8-3.6-2-5.2-3.6c-1.2-1.6-2.4-3.2-3.2-5.2s-1.2-4.4-1.2-6.8c0-2.4,0.4-4.8,1.2-6.8
			s2-4,3.2-5.2c1.6-1.6,3.2-2.8,5.2-3.6c2-0.8,4.4-1.2,6.8-1.2c2.8,0,5.2,0.4,7.2,1.6s3.6,2.4,5.2,4.4c1.2,1.6,2.4,4,2.8,6
			c0.4,2.4,0.8,4.8,0.8,7.2h-23.2C207.4,93.8,208.2,95.8,209.4,97z M219.4,80.2c-1.2-1.2-2.8-1.6-4.8-1.6c-1.2,0-2.8,0.4-3.6,0.8
			s-1.6,1.2-2.4,1.6c-0.4,0.8-0.8,1.6-1.2,2.4c-0.4,0.8-0.4,1.6-0.4,2h14.4C221.4,83,220.6,81.4,219.4,80.2z"/>
		<path fill="#FFFFFF" d="M260.6,105l-6-21.6l0,0L249,105h-9.2l-10.4-32.4h9.6l6,22l0,0l5.2-22h8.8l5.6,22l0,0l6-22h9.2l-10,32.4
			H260.6z"/>
		<path fill="#FFFFFF" d="M280.2,82.6c0-2,0.8-4,1.6-5.2c0.8-1.2,2-2.4,3.6-3.2c1.2-0.8,3.2-1.6,4.8-1.6c1.6-0.4,3.6-0.4,5.2-0.4
			s3.2,0,4.8,0.4c1.6,0.4,3.2,0.8,4.4,1.2c1.2,0.8,2.4,1.6,3.2,2.8c0.8,1.2,1.2,2.8,1.2,4.8v16.8c0,1.6,0,2.8,0.4,4
			c0,1.2,0.4,2.4,0.8,3.2h-8.8c0-0.4-0.4-0.8-0.4-1.6c0-0.4,0-1.2-0.4-1.6c-1.2,1.6-3.2,2.4-4.8,3.2c-2,0.4-4,0.8-6,0.8
			c-1.6,0-3.2,0-4.4-0.4c-1.2-0.4-2.4-0.8-3.6-1.6c-0.8-0.8-1.6-1.6-2.4-3.2c-0.4-1.2-0.8-2.8-0.8-4.4c0-1.6,0.4-3.2,0.8-4.4
			c0.8-1.2,1.6-2,2.4-2.8c1.2-0.8,2.4-1.2,3.6-1.6s2.8-0.8,4-0.8c1.2-0.4,2.8-0.4,4-0.4s2.4-0.4,3.6-0.4c0.8-0.4,1.6-0.8,2.4-1.2
			c0.4-0.4,0.8-1.2,0.8-2c0-0.8,0-1.6-0.4-2.4c-0.4-0.4-0.8-0.8-1.2-1.2c-0.4-0.4-1.2-0.4-1.6-0.8c-0.8,0-1.6,0-2.4,0
			c-1.6,0-3.2,0.4-4,1.2s-1.6,2-1.6,3.6L280.2,82.6L280.2,82.6z M300.6,89c-0.4,0.4-0.8,0.4-1.2,0.8c-0.4,0-1.2,0.4-1.6,0.4
			c-0.8,0-1.2,0.4-2,0.4s-1.2,0-2,0.4c-0.8,0-1.2,0.4-2,0.4c-0.8,0.4-1.2,0.4-1.6,0.8s-0.8,0.8-1.2,1.2c-0.4,0.4-0.4,1.2-0.4,2
			c0,0.8,0,1.6,0.4,2c0.4,0.4,0.8,0.8,1.2,1.2c0.4,0.4,1.2,0.4,1.6,0.8c0.8,0,1.2,0,2,0c1.6,0,3.2-0.4,4-0.8s1.6-1.2,2-2
			s0.8-1.6,0.8-2.4s0-1.6,0-2L300.6,89L300.6,89z"/>
		<path fill="#FFFFFF" d="M325.8,114.6c-1.6,1.2-4,1.6-7.2,1.6c-0.8,0-1.6,0-2.8,0c-0.8,0-1.6,0-2.8-0.4v-7.2c0.8,0,1.6,0,2.4,0.4
			c0.8,0,1.6,0,2.8,0c1.2,0,2-0.4,2.8-1.2c0.4-0.8,0.8-1.6,0.8-2.8c0-0.8,0-1.2-0.4-2l-11.2-30.4h9.6l7.2,22l0,0l7.2-22.4h9.2
			L329.8,109C328.6,111.8,327.4,113.4,325.8,114.6z"/>
	</g>
	<g opacity="0.7">
		<path fill="#FFFFFF" d="M344.6,78.6c0.4-1.6,1.2-2.8,2.4-3.6s2.4-1.6,4-2s3.2-0.8,5.2-0.8c1.2,0,2.8,0,4.4,0.4
			c1.2,0.4,2.8,0.8,4,1.6c1.2,0.8,2,1.6,2.8,3.2c0.8,1.2,1.2,3.2,1.2,5.2v17.2c0,1.6,0.8,2.4,2.4,2.4c0.4,0,0.8,0,1.2-0.4v3.2
			c-0.4,0-0.8,0-1.2,0c-0.4,0-0.8,0-1.2,0c-0.8,0-1.6,0-2.4-0.4c-0.4-0.4-1.2-0.8-1.2-1.2c-0.4-0.4-0.4-1.2-0.8-1.6
			c0-0.8,0-1.6,0-2.4l0,0c-0.8,1.2-1.6,2-2,2.8c-0.8,0.8-1.6,1.6-2.4,2s-2,0.8-3.2,1.2c-1.2,0.4-2.4,0.4-4,0.4s-2.8,0-4.4-0.4
			c-1.2-0.4-2.4-0.8-3.6-1.6c-0.8-0.8-1.6-1.6-2.4-2.8c-0.4-1.2-0.8-2.8-0.8-4.4c0-2.4,0.4-4,1.6-5.2c0.8-1.2,2.4-2.4,4-2.8
			c1.6-0.8,3.6-1.2,5.6-1.2c2-0.4,4-0.4,6.4-0.8c0.8,0,1.6,0,2.4-0.4c0.8,0,1.2-0.4,1.6-0.8s0.8-0.8,0.8-1.2s0.4-1.2,0.4-2
			c0-1.2-0.4-2.4-0.8-3.2c-1.6-0.8-2-1.6-2.8-2c-0.8-0.4-1.6-0.8-2.8-1.2c-1.2,0-2-0.4-3.2-0.4c-2.4,0-4.4,0.4-6,1.6
			c-1.6,1.6-2.8,3.6-2.8,6h-4C343.4,81.4,343.8,79.8,344.6,78.6z M364.2,88.2c-0.4,0.4-0.8,0.8-1.6,0.8c-0.8,0.4-1.2,0.4-2,0.4
			c-1.6,0.4-3.6,0.4-5.2,0.8c-1.6,0.4-3.6,0.4-4.8,1.2c-1.6,0.4-2.8,1.2-3.6,2c-0.8,0.8-1.2,2-1.2,3.6c0,0.8,0,2,0.4,2.8
			c0.4,0.8,0.8,1.6,1.6,2c0.8,0.4,1.6,0.8,2.4,1.2s1.6,0.4,2.8,0.4c1.6,0,2.8-0.4,4.4-0.8c1.2-0.4,2.8-1.2,3.6-2
			c1.2-0.8,2-2,2.4-3.2s0.8-2.8,0.8-4.4L364.2,88.2L364.2,88.2L364.2,88.2z"/>
		<path fill="#FFFFFF" d="M377.4,73.4v6l0,0c0.8-2.4,2.4-4,4.4-5.2c2-1.2,4.4-2,7.2-2c2.4,0,4.4,0.4,6.4,1.2c1.6,0.8,3.2,2,4.4,3.6
			c1.6,2,2.4,4,3.2,6c0.4,2,0.8,4.4,0.8,6.4s-0.4,4.8-0.8,6.8s-1.6,4-2.8,5.6c-1.2,1.6-2.8,2.8-4.4,3.6c-1.6,0.8-4,1.2-6.4,1.2
			c-1.2,0-2.4,0-3.6-0.4s-2.4-0.8-3.2-1.2c-0.8-0.4-2-1.2-2.8-2.4c-0.8-0.8-1.2-2-1.6-3.2l0,0v18h-4v-44H377.4L377.4,73.4z
			 M399,84.6c-0.4-1.6-1.2-3.2-2-4.4c-0.8-1.2-1.6-2.4-3.2-3.2c-1.2-0.8-2.8-1.2-4.8-1.2c-2.4,0-4,0.4-5.6,1.2s-2.8,1.6-3.6,3.2
			c-0.8,1.2-1.6,2.8-2,4.4s-0.4,3.6-0.4,5.2c0,1.6,0,3.2,0.4,4.8s1.2,3.2,2,4.4s2,2.4,3.6,3.2c1.6,0.8,3.2,1.2,5.2,1.2
			s3.6-0.4,4.8-1.2c1.2-0.8,2.4-2,3.2-3.2c0.8-1.2,1.6-2.8,2-4.4s0.4-3.2,0.4-4.8C399.8,87.8,399.4,86.2,399,84.6z"/>
		<path fill="#FFFFFF" d="M411,61v6.4h-4V61H411z M411,73.4v32.4h-4V73.4H411z"/>
	</g>
</g>
<g>
	<rect x="424" y="69" fill="#F4B723" width="110" height="40.2"/>
	<g>
		<path fill="#FFFFFF" d="M457.8,83c1.6,1.5,2.5,3.6,2.5,6.3c0,2.7-0.8,4.8-2.4,6.4c-1.6,1.6-4.1,2.4-7.4,2.4h-5.9V80.8h6.1
			C453.8,80.8,456.2,81.5,457.8,83z M455,93.3c0.9-0.9,1.4-2.2,1.4-3.9c0-1.7-0.5-3-1.4-3.9c-0.9-0.9-2.4-1.4-4.4-1.4h-2.2v10.5h2.4
			C452.7,94.7,454,94.2,455,93.3z"/>
		<path fill="#FFFFFF" d="M478.2,95.7c-1.7,1.7-3.9,2.6-6.5,2.6c-2.6,0-4.7-0.9-6.5-2.6c-1.7-1.7-2.6-3.8-2.6-6.4
			c0-2.5,0.9-4.7,2.6-6.4c1.7-1.7,3.9-2.6,6.5-2.6c2.6,0,4.7,0.9,6.5,2.6c1.7,1.7,2.6,3.8,2.6,6.4C480.8,91.9,479.9,94,478.2,95.7z
			 M476.9,89.3c0-1.5-0.5-2.9-1.5-3.9c-1-1.1-2.2-1.6-3.6-1.6c-1.4,0-2.7,0.5-3.6,1.6c-1,1.1-1.5,2.4-1.5,3.9c0,1.5,0.5,2.9,1.5,3.9
			c1,1.1,2.2,1.6,3.6,1.6c1.4,0,2.7-0.5,3.6-1.6C476.4,92.2,476.9,90.9,476.9,89.3z"/>
		<path fill="#FFFFFF" d="M492,94.7c1.9,0,3.4-0.8,4.7-2.3l2.5,2.5c-2,2.2-4.3,3.3-6.9,3.3c-2.7,0-4.9-0.8-6.6-2.5
			c-1.7-1.7-2.6-3.8-2.6-6.4c0-2.6,0.9-4.7,2.6-6.4c1.8-1.7,3.9-2.6,6.4-2.6c2.8,0,5.2,1.1,7.1,3.2l-2.4,2.7
			c-1.2-1.5-2.7-2.3-4.6-2.3c-1.5,0-2.7,0.5-3.7,1.4c-1,0.9-1.5,2.2-1.5,3.8c0,1.6,0.5,2.9,1.5,3.9C489.4,94.2,490.6,94.7,492,94.7z
			"/>
		<path fill="#FFFFFF" d="M506.2,84.2c-0.4,0.3-0.6,0.7-0.6,1.2c0,0.5,0.2,0.9,0.7,1.2c0.5,0.3,1.5,0.6,3.1,1.1
			c1.6,0.4,2.9,1,3.8,1.8c0.9,0.8,1.4,2,1.4,3.5c0,1.5-0.6,2.8-1.7,3.8c-1.2,1-2.7,1.4-4.6,1.4c-2.7,0-5.2-1-7.4-3l2.3-2.8
			c1.9,1.6,3.6,2.4,5.2,2.4c0.7,0,1.3-0.2,1.7-0.5c0.4-0.3,0.6-0.7,0.6-1.2c0-0.5-0.2-0.9-0.6-1.2c-0.4-0.3-1.3-0.6-2.5-0.9
			c-2-0.5-3.5-1.1-4.4-1.9c-0.9-0.8-1.4-2-1.4-3.6c0-1.6,0.6-2.9,1.8-3.8c1.2-0.9,2.7-1.3,4.4-1.3c1.2,0,2.3,0.2,3.5,0.6
			c1.2,0.4,2.2,1,3,1.7l-2,2.8c-1.5-1.1-3.1-1.7-4.7-1.7C507.1,83.8,506.6,83.9,506.2,84.2z"/>
	</g>
</g>
</svg>
