<?xml version="1.0" encoding="UTF-8"?>
<svg width="255px" height="36px" viewBox="0 0 255 36" version="1.1" xmlns="http://www.w3.org/2000/svg" xmlns:xlink="http://www.w3.org/1999/xlink">
    <g id="Page-1" stroke="none" stroke-width="1" fill="none" fill-rule="evenodd">
        <g id="GatewayAPI_nav-logo-1" transform="translate(0.000000, -1.000000)">
            <g id="Layer_1-2">
                <g id="Group_224" transform="translate(0.000000, 1.000000)">
                    <path d="M0,23.9 C0,25.7 1.4,27.2 3.2,27.3 L28.9,27.3 L0,0.6 L0,23.9 Z" id="Path_445" fill="#0025BF"></path>
                    <polygon id="Path_446" fill="#0B51FF" points="12.8 0.6 0 0.6 29 27.4 38 35.7 38 23.9"></polygon>
                    <polygon id="Path_447" fill="#067DFF" points="12.8 0.6 38 23.9 38 12.1 25.6 0.6"></polygon>
                    <path d="M34.8,0.6 L25.6,0.6 L38,12.1 L38,4 C38.1,2.2 36.8,0.7 35,0.6 C34.9,0.6 34.9,0.6 34.8,0.6 Z" id="Path_448" fill="#03A5FF"></path>
                </g>
                <g id="Group_54" transform="translate(49.000000, 0.000000)" fill="#ffffff">
                    <path d="M12.6,7.7 L12.6,9.6 C11.4,8.1 9.7,7.3 7.8,7.4 C3.9,7.4 0.7,10.5 0.7,14.4 C0.7,14.4 0.7,14.4 0.7,14.5 L0.7,15 C0.5,18.9 3.5,22.3 7.4,22.5 L7.8,22.5 C9.6,22.5 11.4,21.7 12.6,20.3 L12.6,20.5 C12.6,24.6 10.9,26.2 8.1,26.2 C6.5,26.2 5,25.3 4.2,23.9 L1.2,25.3 C2.5,27.9 5.1,29.6 8,29.5 C12.9,29.5 16.1,26.7 16.1,20.2 L16.1,7.8 L12.6,7.7 Z M8.4,19.1 C6.2,19.1 4.4,17.4 4.4,15.2 L4.4,15 L4.4,14.9 C4.3,12.7 6,10.9 8.2,10.8 L8.3,10.8 L8.4,10.8 C10.7,10.8 12.6,12.7 12.6,15 C12.5,17.3 10.7,19.1 8.4,19.1 L8.4,19.1 Z" id="Path_105"></path>
                    <path d="M29.6,7.7 L29.6,9.6 C28.5,8.1 26.7,7.3 24.8,7.4 C20.6,7.7 17.5,11.2 17.8,15.4 C18,19.2 21.1,22.2 24.9,22.4 C26.8,22.5 28.6,21.6 29.7,20.1 L29.7,22 L33.3,22 L33.3,7.6 L29.6,7.6 L29.6,7.7 L29.6,7.7 Z M25.4,19.1 C23.2,19.1 21.4,17.4 21.4,15.2 L21.4,15 L21.4,14.9 C21.3,12.7 23,10.9 25.2,10.8 L25.3,10.8 L25.4,10.8 C27.7,10.8 29.5,12.7 29.5,15 L29.5,15 C29.4,17.3 27.6,19.1 25.4,19.1 L25.4,19.1 Z" id="Path_106"></path>
                    <polygon id="Path_107" points="41.7 7.7 41.7 2.4 38.1 5.2 38.1 7.7 35.5 7.7 35.5 10.6 38.1 10.6 38.1 22.1 41.7 22.1 41.7 10.6 44.8 10.6 44.8 7.7"></polygon>
                    <path d="M60.7,14.8 C60.9,10.9 57.8,7.6 53.9,7.4 L53.3,7.4 C49.2,7.4 45.8,10.8 45.8,14.9 C45.8,19 49.2,22.4 53.3,22.4 L53.3,22.4 C55.9,22.5 58.3,21.3 59.8,19.2 L57.4,17.4 C56.4,18.6 55,19.2 53.5,19.2 C51.6,19.4 49.8,18.1 49.4,16.2 L60.5,16.2 C60.6,15.8 60.7,15.3 60.7,14.8 Z M49.4,13.7 C49.7,11.8 51.4,10.4 53.3,10.6 C55.1,10.4 56.8,11.7 57,13.5 L57,13.7 L49.4,13.7 Z" id="Path_108"></path>
                    <polygon id="Path_109" points="79.9 7.7 76.8 17 73.7 7.7 70.5 7.7 67.4 17 64.3 7.7 60.4 7.7 65.7 22.1 68.7 22.1 71.9 12.2 75.3 22.1 78.3 22.1 83.5 7.7 79.9 7.7"></polygon>
                    <path d="M95.7,7.7 L95.7,9.6 C94.6,8.1 92.8,7.3 90.9,7.4 C86.7,7.7 83.6,11.2 83.9,15.4 C84.1,19.2 87.2,22.2 91,22.4 C92.9,22.5 94.7,21.6 95.8,20.1 L95.8,22 L99.4,22 L99.4,7.6 L95.7,7.6 L95.7,7.7 Z M91.5,19.1 C89.3,19.1 87.5,17.4 87.5,15.2 L87.5,15 L87.5,14.9 C87.4,12.7 89.1,10.9 91.3,10.8 L91.4,10.8 L91.5,10.8 C93.8,10.8 95.7,12.6 95.7,14.9 C95.7,17.2 93.9,19.1 91.6,19.1 L91.5,19.1 Z" id="Path_110"></path>
                    <polygon id="Path_111" points="112.5 7.7 108.8 16.8 105.1 7.7 101.2 7.7 106.9 21.1 103.7 29.1 107.5 29.1 116.5 7.6"></polygon>
                    <path d="M129.8,7.7 L129.8,10.5 C128.6,8.5 126.4,7.3 124.1,7.4 C120,7.5 116.7,10.9 116.8,15.1 C116.9,19.1 120.1,22.3 124.1,22.4 C126.4,22.5 128.6,21.3 129.8,19.3 L129.8,22.1 L131.8,22.1 L131.8,7.7 L129.8,7.7 Z M124.2,20.6 C121.1,20.6 118.7,18.1 118.7,15 L118.7,14.9 C118.6,11.9 121.1,9.4 124.1,9.3 L124.2,9.3 C127.3,9.3 129.8,11.7 129.8,14.8 L129.8,15 C129.9,18 127.5,20.5 124.4,20.6 L124.2,20.6 Z" id="Path_112"></path>
                    <path d="M143.2,7.4 C140.9,7.3 138.7,8.5 137.5,10.5 L137.5,7.7 L135.5,7.7 L135.5,29.1 L137.5,29.1 L137.5,19.3 C138.7,21.3 140.9,22.5 143.2,22.4 C147.3,22.3 150.6,18.9 150.5,14.7 C150.5,10.7 147.2,7.5 143.2,7.4 Z M143.1,20.6 C140,20.7 137.5,18.3 137.4,15.2 L137.4,15.1 C137.3,12 139.8,9.4 142.9,9.4 C146,9.3 148.6,11.8 148.6,14.9 C148.6,14.9 148.6,14.9 148.6,15 L148.6,15.2 C148.6,18.1 146.2,20.6 143.1,20.6 L143.1,20.6 Z" id="Path_113"></path>
                    <path d="M153.3,7.7 L153.3,22.1 L155.3,22.1 L155.3,7.7 L153.3,7.7 Z M154.2,1 C153.5,0.9 152.8,1.4 152.7,2.1 L152.7,2.3 C152.6,3 153.1,3.7 153.8,3.8 L154,3.8 L154.2,3.8 C154.9,3.9 155.6,3.4 155.7,2.7 L155.7,2.5 C155.8,1.8 155.3,1.1 154.6,1 L154.4,1 L154.2,1 L154.2,1 Z" id="Path_114"></path>
                </g>
            </g>
            <g id="Group" transform="translate(215.000000, 8.000000)">
                <rect id="Rectangle-path" fill="#F4B723" x="0" y="0" width="40" height="14.7073171"></rect>
                <g transform="translate(7.272727, 4.024390)" id="Shape" fill="#FFFFFF">
                    <path d="M5.01818182,1.09756098 C5.6,1.64634146 5.92727273,2.41463415 5.92727273,3.40243902 C5.92727273,4.3902439 5.63636364,5.15853659 5.05454545,5.74390244 C4.47272727,6.32926829 3.56363636,6.62195122 2.36363636,6.62195122 L0.218181818,6.62195122 L0.218181818,0.292682927 L2.43636364,0.292682927 C3.56363636,0.292682927 4.43636364,0.548780488 5.01818182,1.09756098 Z M4,4.86585366 C4.32727273,4.53658537 4.50909091,4.06097561 4.50909091,3.43902439 C4.50909091,2.81707317 4.32727273,2.34146341 4,2.01219512 C3.67272727,1.68292683 3.12727273,1.5 2.4,1.5 L1.6,1.5 L1.6,5.34146341 L2.47272727,5.34146341 C3.16363636,5.37804878 3.63636364,5.19512195 4,4.86585366 Z"></path>
                    <path d="M12.4363636,5.74390244 C11.8181818,6.36585366 11.0181818,6.69512195 10.0727273,6.69512195 C9.12727273,6.69512195 8.36363636,6.36585366 7.70909091,5.74390244 C7.09090909,5.12195122 6.76363636,4.35365854 6.76363636,3.40243902 C6.76363636,2.48780488 7.09090909,1.68292683 7.70909091,1.06097561 C8.32727273,0.43902439 9.12727273,0.109756098 10.0727273,0.109756098 C11.0181818,0.109756098 11.7818182,0.43902439 12.4363636,1.06097561 C13.0545455,1.68292683 13.3818182,2.45121951 13.3818182,3.40243902 C13.3818182,4.35365854 13.0545455,5.12195122 12.4363636,5.74390244 Z M11.9636364,3.40243902 C11.9636364,2.85365854 11.7818182,2.34146341 11.4181818,1.97560976 C11.0545455,1.57317073 10.6181818,1.3902439 10.1090909,1.3902439 C9.6,1.3902439 9.12727273,1.57317073 8.8,1.97560976 C8.43636364,2.37804878 8.25454545,2.85365854 8.25454545,3.40243902 C8.25454545,3.95121951 8.43636364,4.46341463 8.8,4.82926829 C9.16363636,5.23170732 9.6,5.41463415 10.1090909,5.41463415 C10.6181818,5.41463415 11.0909091,5.23170732 11.4181818,4.82926829 C11.7818182,4.46341463 11.9636364,3.98780488 11.9636364,3.40243902 Z"></path>
                    <path d="M17.4545455,5.37804878 C18.1454545,5.37804878 18.6909091,5.08536585 19.1636364,4.53658537 L20.0727273,5.45121951 C19.3454545,6.25609756 18.5090909,6.65853659 17.5636364,6.65853659 C16.5818182,6.65853659 15.7818182,6.36585366 15.1636364,5.74390244 C14.5454545,5.12195122 14.2181818,4.35365854 14.2181818,3.40243902 C14.2181818,2.45121951 14.5454545,1.68292683 15.1636364,1.06097561 C15.8181818,0.43902439 16.5818182,0.109756098 17.4909091,0.109756098 C18.5090909,0.109756098 19.3818182,0.512195122 20.0727273,1.2804878 L19.2,2.26829268 C18.7636364,1.7195122 18.2181818,1.42682927 17.5272727,1.42682927 C16.9818182,1.42682927 16.5454545,1.6097561 16.1818182,1.93902439 C15.8181818,2.26829268 15.6363636,2.74390244 15.6363636,3.32926829 C15.6363636,3.91463415 15.8181818,4.3902439 16.1818182,4.75609756 C16.5090909,5.19512195 16.9454545,5.37804878 17.4545455,5.37804878 Z"></path>
                    <path d="M22.6181818,1.53658537 C22.4727273,1.64634146 22.4,1.79268293 22.4,1.97560976 C22.4,2.15853659 22.4727273,2.30487805 22.6545455,2.41463415 C22.8363636,2.52439024 23.2,2.63414634 23.7818182,2.81707317 C24.3636364,2.96341463 24.8363636,3.18292683 25.1636364,3.47560976 C25.4909091,3.76829268 25.6727273,4.20731707 25.6727273,4.75609756 C25.6727273,5.30487805 25.4545455,5.7804878 25.0545455,6.14634146 C24.6181818,6.51219512 24.0727273,6.65853659 23.3818182,6.65853659 C22.4,6.65853659 21.4909091,6.29268293 20.6909091,5.56097561 L21.5272727,4.53658537 C22.2181818,5.12195122 22.8363636,5.41463415 23.4181818,5.41463415 C23.6727273,5.41463415 23.8909091,5.34146341 24.0363636,5.23170732 C24.1818182,5.12195122 24.2545455,4.97560976 24.2545455,4.79268293 C24.2545455,4.6097561 24.1818182,4.46341463 24.0363636,4.35365854 C23.8909091,4.24390244 23.5636364,4.13414634 23.1272727,4.02439024 C22.4,3.84146341 21.8545455,3.62195122 21.5272727,3.32926829 C21.2,3.03658537 21.0181818,2.59756098 21.0181818,2.01219512 C21.0181818,1.42682927 21.2363636,0.951219512 21.6727273,0.62195122 C22.1090909,0.292682927 22.6545455,0.146341463 23.2727273,0.146341463 C23.7090909,0.146341463 24.1090909,0.219512195 24.5454545,0.365853659 C24.9818182,0.512195122 25.3454545,0.731707317 25.6363636,0.987804878 L24.9090909,2.01219512 C24.3636364,1.6097561 23.7818182,1.3902439 23.2,1.3902439 C22.9454545,1.3902439 22.7636364,1.42682927 22.6181818,1.53658537 Z"></path>
                </g>
            </g>
        </g>
    </g>
</svg>