<?xml version="1.0" encoding="UTF-8"?>
<svg width="252px" height="36px" viewBox="0 0 252 36" version="1.1" xmlns="http://www.w3.org/2000/svg" xmlns:xlink="http://www.w3.org/1999/xlink">
    <g id="Page-1" stroke="none" stroke-width="1" fill="none" fill-rule="evenodd">
        <g id="GatewayAPI_nav-logo-1" transform="translate(0.000000, -1.000000)">
            <g id="Layer_1-2">
                <g id="Group_224" transform="translate(0.000000, 1.000000)">
                    <path d="M0,23.9 C0,25.7 1.4,27.2 3.2,27.3 L28.9,27.3 L0,0.6 L0,23.9 Z" id="Path_445" fill="#0025BF"></path>
                    <polygon id="Path_446" fill="#0B51FF" points="12.8 0.6 0 0.6 29 27.4 38 35.7 38 23.9"></polygon>
                    <polygon id="Path_447" fill="#067DFF" points="12.8 0.6 38 23.9 38 12.1 25.6 0.6"></polygon>
                    <path d="M34.8,0.6 L25.6,0.6 L38,12.1 L38,4 C38.1,2.2 36.8,0.7 35,0.6 C34.9,0.6 34.9,0.6 34.8,0.6 Z" id="Path_448" fill="#03A5FF"></path>
                </g>
                <g id="Group_54" transform="translate(49.000000, 0.000000)" fill="#ffffff">
                    <path d="M12.6,7.7 L12.6,9.6 C11.4,8.1 9.7,7.3 7.8,7.4 C3.9,7.4 0.7,10.5 0.7,14.4 C0.7,14.4 0.7,14.4 0.7,14.5 L0.7,15 C0.5,18.9 3.5,22.3 7.4,22.5 L7.8,22.5 C9.6,22.5 11.4,21.7 12.6,20.3 L12.6,20.5 C12.6,24.6 10.9,26.2 8.1,26.2 C6.5,26.2 5,25.3 4.2,23.9 L1.2,25.3 C2.5,27.9 5.1,29.6 8,29.5 C12.9,29.5 16.1,26.7 16.1,20.2 L16.1,7.8 L12.6,7.7 Z M8.4,19.1 C6.2,19.1 4.4,17.4 4.4,15.2 L4.4,15 L4.4,14.9 C4.3,12.7 6,10.9 8.2,10.8 L8.3,10.8 L8.4,10.8 C10.7,10.8 12.6,12.7 12.6,15 C12.5,17.3 10.7,19.1 8.4,19.1 L8.4,19.1 Z" id="Path_105"></path>
                    <path d="M29.6,7.7 L29.6,9.6 C28.5,8.1 26.7,7.3 24.8,7.4 C20.6,7.7 17.5,11.2 17.8,15.4 C18,19.2 21.1,22.2 24.9,22.4 C26.8,22.5 28.6,21.6 29.7,20.1 L29.7,22 L33.3,22 L33.3,7.6 L29.6,7.6 L29.6,7.7 L29.6,7.7 Z M25.4,19.1 C23.2,19.1 21.4,17.4 21.4,15.2 L21.4,15 L21.4,14.9 C21.3,12.7 23,10.9 25.2,10.8 L25.3,10.8 L25.4,10.8 C27.7,10.8 29.5,12.7 29.5,15 L29.5,15 C29.4,17.3 27.6,19.1 25.4,19.1 L25.4,19.1 Z" id="Path_106"></path>
                    <polygon id="Path_107" points="41.7 7.7 41.7 2.4 38.1 5.2 38.1 7.7 35.5 7.7 35.5 10.6 38.1 10.6 38.1 22.1 41.7 22.1 41.7 10.6 44.8 10.6 44.8 7.7"></polygon>
                    <path d="M60.7,14.8 C60.9,10.9 57.8,7.6 53.9,7.4 L53.3,7.4 C49.2,7.4 45.8,10.8 45.8,14.9 C45.8,19 49.2,22.4 53.3,22.4 L53.3,22.4 C55.9,22.5 58.3,21.3 59.8,19.2 L57.4,17.4 C56.4,18.6 55,19.2 53.5,19.2 C51.6,19.4 49.8,18.1 49.4,16.2 L60.5,16.2 C60.6,15.8 60.7,15.3 60.7,14.8 Z M49.4,13.7 C49.7,11.8 51.4,10.4 53.3,10.6 C55.1,10.4 56.8,11.7 57,13.5 L57,13.7 L49.4,13.7 Z" id="Path_108"></path>
                    <polygon id="Path_109" points="79.9 7.7 76.8 17 73.7 7.7 70.5 7.7 67.4 17 64.3 7.7 60.4 7.7 65.7 22.1 68.7 22.1 71.9 12.2 75.3 22.1 78.3 22.1 83.5 7.7 79.9 7.7"></polygon>
                    <path d="M95.7,7.7 L95.7,9.6 C94.6,8.1 92.8,7.3 90.9,7.4 C86.7,7.7 83.6,11.2 83.9,15.4 C84.1,19.2 87.2,22.2 91,22.4 C92.9,22.5 94.7,21.6 95.8,20.1 L95.8,22 L99.4,22 L99.4,7.6 L95.7,7.6 L95.7,7.7 Z M91.5,19.1 C89.3,19.1 87.5,17.4 87.5,15.2 L87.5,15 L87.5,14.9 C87.4,12.7 89.1,10.9 91.3,10.8 L91.4,10.8 L91.5,10.8 C93.8,10.8 95.7,12.6 95.7,14.9 C95.7,17.2 93.9,19.1 91.6,19.1 L91.5,19.1 Z" id="Path_110"></path>
                    <polygon id="Path_111" points="112.5 7.7 108.8 16.8 105.1 7.7 101.2 7.7 106.9 21.1 103.7 29.1 107.5 29.1 116.5 7.6"></polygon>
                    <path d="M129.8,7.7 L129.8,10.5 C128.6,8.5 126.4,7.3 124.1,7.4 C120,7.5 116.7,10.9 116.8,15.1 C116.9,19.1 120.1,22.3 124.1,22.4 C126.4,22.5 128.6,21.3 129.8,19.3 L129.8,22.1 L131.8,22.1 L131.8,7.7 L129.8,7.7 Z M124.2,20.6 C121.1,20.6 118.7,18.1 118.7,15 L118.7,14.9 C118.6,11.9 121.1,9.4 124.1,9.3 L124.2,9.3 C127.3,9.3 129.8,11.7 129.8,14.8 L129.8,15 C129.9,18 127.5,20.5 124.4,20.6 L124.2,20.6 Z" id="Path_112"></path>
                    <path d="M143.2,7.4 C140.9,7.3 138.7,8.5 137.5,10.5 L137.5,7.7 L135.5,7.7 L135.5,29.1 L137.5,29.1 L137.5,19.3 C138.7,21.3 140.9,22.5 143.2,22.4 C147.3,22.3 150.6,18.9 150.5,14.7 C150.5,10.7 147.2,7.5 143.2,7.4 Z M143.1,20.6 C140,20.7 137.5,18.3 137.4,15.2 L137.4,15.1 C137.3,12 139.8,9.4 142.9,9.4 C146,9.3 148.6,11.8 148.6,14.9 C148.6,14.9 148.6,14.9 148.6,15 L148.6,15.2 C148.6,18.1 146.2,20.6 143.1,20.6 L143.1,20.6 Z" id="Path_113"></path>
                    <path d="M153.3,7.7 L153.3,22.1 L155.3,22.1 L155.3,7.7 L153.3,7.7 Z M154.2,1 C153.5,0.9 152.8,1.4 152.7,2.1 L152.7,2.3 C152.6,3 153.1,3.7 153.8,3.8 L154,3.8 L154.2,3.8 C154.9,3.9 155.6,3.4 155.7,2.7 L155.7,2.5 C155.8,1.8 155.3,1.1 154.6,1 L154.4,1 L154.2,1 L154.2,1 Z" id="Path_114"></path>
                </g>
            </g>
            <g id="Group" transform="translate(209.000000, 8.000000)">
                <rect id="Rectangle-path" fill="#F4B723" x="0" y="0" width="43" height="14.7073171"></rect>
                <g transform="translate(7.818182, 4.024390)" id="Shape" fill="#FFFFFF">
                    <path d="M5.39454545,1.09756098 C6.02,1.64634146 6.37181818,2.41463415 6.37181818,3.40243902 C6.37181818,4.3902439 6.05909091,5.15853659 5.43363636,5.74390244 C4.80818182,6.32926829 3.83090909,6.62195122 2.54090909,6.62195122 L0.234545455,6.62195122 L0.234545455,0.292682927 L2.61909091,0.292682927 C3.83090909,0.292682927 4.76909091,0.548780488 5.39454545,1.09756098 Z M4.3,4.86585366 C4.65181818,4.53658537 4.84727273,4.06097561 4.84727273,3.43902439 C4.84727273,2.81707317 4.65181818,2.34146341 4.3,2.01219512 C3.94818182,1.68292683 3.36181818,1.5 2.58,1.5 L1.72,1.5 L1.72,5.34146341 L2.65818182,5.34146341 C3.40090909,5.37804878 3.90909091,5.19512195 4.3,4.86585366 Z"></path>
                    <path d="M13.3690909,5.74390244 C12.7045455,6.36585366 11.8445455,6.69512195 10.8281818,6.69512195 C9.81181818,6.69512195 8.99090909,6.36585366 8.28727273,5.74390244 C7.62272727,5.12195122 7.27090909,4.35365854 7.27090909,3.40243902 C7.27090909,2.48780488 7.62272727,1.68292683 8.28727273,1.06097561 C8.95181818,0.43902439 9.81181818,0.109756098 10.8281818,0.109756098 C11.8445455,0.109756098 12.6654545,0.43902439 13.3690909,1.06097561 C14.0336364,1.68292683 14.3854545,2.45121951 14.3854545,3.40243902 C14.3854545,4.35365854 14.0336364,5.12195122 13.3690909,5.74390244 Z M12.8609091,3.40243902 C12.8609091,2.85365854 12.6654545,2.34146341 12.2745455,1.97560976 C11.8836364,1.57317073 11.4145455,1.3902439 10.8672727,1.3902439 C10.32,1.3902439 9.81181818,1.57317073 9.46,1.97560976 C9.06909091,2.37804878 8.87363636,2.85365854 8.87363636,3.40243902 C8.87363636,3.95121951 9.06909091,4.46341463 9.46,4.82926829 C9.85090909,5.23170732 10.32,5.41463415 10.8672727,5.41463415 C11.4145455,5.41463415 11.9227273,5.23170732 12.2745455,4.82926829 C12.6654545,4.46341463 12.8609091,3.98780488 12.8609091,3.40243902 Z"></path>
                    <path d="M18.7636364,5.37804878 C19.5063636,5.37804878 20.0927273,5.08536585 20.6009091,4.53658537 L21.5781818,5.45121951 C20.7963636,6.25609756 19.8972727,6.65853659 18.8809091,6.65853659 C17.8254545,6.65853659 16.9654545,6.36585366 16.3009091,5.74390244 C15.6363636,5.12195122 15.2845455,4.35365854 15.2845455,3.40243902 C15.2845455,2.45121951 15.6363636,1.68292683 16.3009091,1.06097561 C17.0045455,0.43902439 17.8254545,0.109756098 18.8027273,0.109756098 C19.8972727,0.109756098 20.8354545,0.512195122 21.5781818,1.2804878 L20.64,2.26829268 C20.1709091,1.7195122 19.5845455,1.42682927 18.8418182,1.42682927 C18.2554545,1.42682927 17.7863636,1.6097561 17.3954545,1.93902439 C17.0045455,2.26829268 16.8090909,2.74390244 16.8090909,3.32926829 C16.8090909,3.91463415 17.0045455,4.3902439 17.3954545,4.75609756 C17.7472727,5.19512195 18.2163636,5.37804878 18.7636364,5.37804878 Z"></path>
                    <path d="M24.3145455,1.53658537 C24.1581818,1.64634146 24.08,1.79268293 24.08,1.97560976 C24.08,2.15853659 24.1581818,2.30487805 24.3536364,2.41463415 C24.5490909,2.52439024 24.94,2.63414634 25.5654545,2.81707317 C26.1909091,2.96341463 26.6990909,3.18292683 27.0509091,3.47560976 C27.4027273,3.76829268 27.5981818,4.20731707 27.5981818,4.75609756 C27.5981818,5.30487805 27.3636364,5.7804878 26.9336364,6.14634146 C26.4645455,6.51219512 25.8781818,6.65853659 25.1354545,6.65853659 C24.08,6.65853659 23.1027273,6.29268293 22.2427273,5.56097561 L23.1418182,4.53658537 C23.8845455,5.12195122 24.5490909,5.41463415 25.1745455,5.41463415 C25.4481818,5.41463415 25.6827273,5.34146341 25.8390909,5.23170732 C25.9954545,5.12195122 26.0736364,4.97560976 26.0736364,4.79268293 C26.0736364,4.6097561 25.9954545,4.46341463 25.8390909,4.35365854 C25.6827273,4.24390244 25.3309091,4.13414634 24.8618182,4.02439024 C24.08,3.84146341 23.4936364,3.62195122 23.1418182,3.32926829 C22.79,3.03658537 22.5945455,2.59756098 22.5945455,2.01219512 C22.5945455,1.42682927 22.8290909,0.951219512 23.2981818,0.62195122 C23.7672727,0.292682927 24.3536364,0.146341463 25.0181818,0.146341463 C25.4872727,0.146341463 25.9172727,0.219512195 26.3863636,0.365853659 C26.8554545,0.512195122 27.2463636,0.731707317 27.5590909,0.987804878 L26.7772727,2.01219512 C26.1909091,1.6097561 25.5654545,1.3902439 24.94,1.3902439 C24.6663636,1.3902439 24.4709091,1.42682927 24.3145455,1.53658537 Z"></path>
                </g>
            </g>
        </g>
    </g>
</svg>