<?xml version="1.0" encoding="utf-8"?>
<!-- Generator: Adobe Illustrator 18.0.0, SVG Export Plug-In . SVG Version: 6.00 Build 0)  -->
<!DOCTYPE svg PUBLIC "-//W3C//DTD SVG 1.1//EN" "http://www.w3.org/Graphics/SVG/1.1/DTD/svg11.dtd">
<svg version="1.1" id="Layer_1" xmlns="http://www.w3.org/2000/svg" xmlns:xlink="http://www.w3.org/1999/xlink" x="0px" y="0px"
	 viewBox="0 0 800 800" enable-background="new 0 0 800 800" xml:space="preserve">
<g>
	<polygon fill="#49A9DF" points="275,255.8 275,422.5 308.3,422.5 308.3,289.1 391.7,289.1 391.7,422.5 525,422.5 525,255.8 	"/>
	<polygon fill="#3D8EBB" points="391.7,422.5 325,489.1 325,355.8 391.7,289.1 	"/>
	<g>
		<path fill="#414042" d="M301.3,535.6c-0.3,1.4-0.9,2.7-1.9,3.9c-1,1.2-2.4,2.2-4.2,3c-1.8,0.8-4.3,1.2-7.4,1.2
			c-1.3,0-2.7-0.2-4-0.5c-1.4-0.3-2.6-0.8-3.7-1.5c-1.1-0.7-2.1-1.6-2.8-2.7c-0.7-1.1-1.2-2.4-1.3-3.9h7.3c0.3,1.4,1,2.4,2,2.9
			c1,0.5,2.2,0.8,3.5,0.8c2.1,0,3.6-0.6,4.6-1.9c1-1.2,1.4-2.8,1.4-4.7v-3.5h-0.1c-0.8,1.4-1.9,2.5-3.4,3.1c-1.5,0.7-3,1-4.7,1
			c-2,0-3.7-0.4-5.2-1.1c-1.5-0.7-2.7-1.7-3.6-2.9c-0.9-1.2-1.6-2.7-2.1-4.3c-0.4-1.6-0.7-3.4-0.7-5.2c0-1.7,0.3-3.4,0.8-5
			c0.5-1.6,1.2-3,2.2-4.3c1-1.2,2.2-2.2,3.6-2.9c1.4-0.7,3.1-1.1,5-1.1c1.8,0,3.3,0.3,4.7,1c1.3,0.7,2.5,1.8,3.4,3.3h0.1v-3.6h7
			v25.2C301.7,533,301.5,534.2,301.3,535.6z M291.1,526.6c0.8-0.4,1.5-1,2-1.7c0.5-0.7,0.9-1.5,1.2-2.4c0.3-0.9,0.4-1.8,0.4-2.8
			c0-1.1-0.1-2.2-0.3-3.1c-0.2-1-0.6-1.9-1-2.6c-0.5-0.8-1.1-1.4-1.9-1.8c-0.8-0.5-1.8-0.7-3-0.7c-1,0-1.9,0.2-2.7,0.6
			c-0.7,0.4-1.4,1-1.9,1.7c-0.5,0.7-0.9,1.5-1.1,2.4c-0.2,0.9-0.3,1.9-0.3,2.9c0,1,0.1,1.9,0.3,2.9c0.2,1,0.5,1.8,1,2.6
			c0.5,0.8,1.1,1.4,1.8,1.9c0.8,0.5,1.7,0.7,2.9,0.7C289.4,527.3,290.3,527,291.1,526.6z"/>
		<path fill="#414042" d="M305.4,515c0.1-1.7,0.5-3.2,1.3-4.3c0.8-1.1,1.7-2.1,2.9-2.8c1.2-0.7,2.5-1.2,4-1.5c1.5-0.3,3-0.4,4.4-0.4
			c1.4,0,2.7,0.1,4.1,0.3c1.4,0.2,2.7,0.6,3.8,1.1c1.1,0.6,2.1,1.3,2.8,2.3c0.7,1,1.1,2.3,1.1,3.9v14c0,1.2,0.1,2.4,0.2,3.5
			c0.1,1.1,0.4,1.9,0.7,2.5h-7.5c-0.1-0.4-0.3-0.8-0.3-1.3c-0.1-0.4-0.1-0.9-0.2-1.3c-1.2,1.2-2.6,2.1-4.2,2.5
			c-1.6,0.5-3.2,0.7-4.9,0.7c-1.3,0-2.5-0.2-3.6-0.5c-1.1-0.3-2.1-0.8-2.9-1.5c-0.8-0.7-1.5-1.5-2-2.5c-0.5-1-0.7-2.2-0.7-3.6
			c0-1.5,0.3-2.8,0.8-3.8c0.5-1,1.2-1.8,2.1-2.4c0.8-0.6,1.8-1,2.9-1.3c1.1-0.3,2.2-0.5,3.3-0.7c1.1-0.2,2.2-0.3,3.3-0.4
			c1.1-0.1,2-0.3,2.9-0.5c0.8-0.2,1.5-0.5,2-0.9c0.5-0.4,0.7-1,0.7-1.7c0-0.8-0.1-1.4-0.4-1.9c-0.3-0.5-0.6-0.8-1-1.1
			c-0.4-0.3-0.9-0.4-1.5-0.5c-0.6-0.1-1.2-0.1-1.8-0.1c-1.5,0-2.6,0.3-3.4,0.9c-0.8,0.6-1.3,1.7-1.5,3.1H305.4z M322.4,520.4
			c-0.3,0.3-0.7,0.5-1.2,0.7c-0.5,0.2-1,0.3-1.5,0.4c-0.5,0.1-1.1,0.2-1.7,0.3c-0.6,0.1-1.2,0.2-1.8,0.3c-0.6,0.1-1.1,0.2-1.6,0.4
			c-0.5,0.2-1,0.4-1.4,0.7c-0.4,0.3-0.7,0.7-1,1.1c-0.2,0.5-0.4,1-0.4,1.7c0,0.7,0.1,1.2,0.4,1.7c0.2,0.5,0.6,0.8,1,1.1
			c0.4,0.3,0.9,0.4,1.5,0.5c0.6,0.1,1.1,0.2,1.7,0.2c1.5,0,2.6-0.2,3.4-0.7c0.8-0.5,1.4-1.1,1.8-1.7c0.4-0.7,0.6-1.4,0.7-2.1
			c0.1-0.7,0.1-1.2,0.1-1.7V520.4z"/>
		<path fill="#414042" d="M348.5,506.7v4.9h-5.4V525c0,1.2,0.2,2.1,0.6,2.5c0.4,0.4,1.2,0.6,2.5,0.6c0.4,0,0.8,0,1.2-0.1
			c0.4,0,0.7-0.1,1.1-0.2v5.7c-0.6,0.1-1.3,0.2-2.1,0.2c-0.8,0-1.5,0.1-2.2,0.1c-1.1,0-2.2-0.1-3.3-0.2c-1-0.2-1.9-0.5-2.7-0.9
			c-0.8-0.5-1.4-1.1-1.8-1.9c-0.5-0.8-0.7-1.9-0.7-3.3v-15.9h-4.5v-4.9h4.5v-1.8l7.4-7.4v9.2H348.5z"/>
		<path fill="#414042" d="M357.8,527.1c1.1,1.1,2.7,1.6,4.8,1.6c1.5,0,2.8-0.4,3.9-1.1c1.1-0.7,1.7-1.5,2-2.4h6.5
			c-1,3.2-2.6,5.5-4.8,6.9c-2.2,1.4-4.8,2.1-7.8,2.1c-2.1,0-4-0.3-5.7-1c-1.7-0.7-3.1-1.6-4.3-2.9c-1.2-1.2-2.1-2.7-2.7-4.5
			c-0.6-1.7-1-3.6-1-5.7c0-2,0.3-3.9,1-5.6c0.7-1.7,1.6-3.2,2.8-4.5c1.2-1.3,2.7-2.3,4.3-3c1.7-0.7,3.5-1.1,5.6-1.1
			c2.3,0,4.3,0.4,6,1.3c1.7,0.9,3.1,2.1,4.2,3.6c1.1,1.5,1.9,3.2,2.4,5.1c0.5,1.9,0.7,3.9,0.5,6H356
			C356.1,524.3,356.7,526.1,357.8,527.1z M366.2,513c-0.9-1-2.2-1.5-4-1.5c-1.2,0-2.2,0.2-2.9,0.6c-0.8,0.4-1.4,0.9-1.9,1.5
			c-0.5,0.6-0.8,1.2-1,1.9c-0.2,0.7-0.3,1.2-0.3,1.8h12C367.7,515.4,367.1,514,366.2,513z"/>
		<path fill="#414042" d="M400.2,533.6l-4.8-18.1h-0.1l-4.6,18.1h-7.6l-8.5-26.9h7.8l4.9,18.3h0.1l4.5-18.3h7.2l4.6,18.2h0.1
			l4.9-18.2h7.6l-8.5,26.9H400.2z"/>
		<path fill="#414042" d="M416.5,515c0.1-1.7,0.5-3.2,1.3-4.3c0.8-1.1,1.7-2.1,2.9-2.8c1.2-0.7,2.5-1.2,4-1.5c1.5-0.3,3-0.4,4.4-0.4
			c1.4,0,2.7,0.1,4.1,0.3c1.4,0.2,2.7,0.6,3.8,1.1c1.1,0.6,2.1,1.3,2.8,2.3c0.7,1,1.1,2.3,1.1,3.9v14c0,1.2,0.1,2.4,0.2,3.5
			c0.1,1.1,0.4,1.9,0.7,2.5h-7.5c-0.1-0.4-0.3-0.8-0.3-1.3c-0.1-0.4-0.1-0.9-0.2-1.3c-1.2,1.2-2.6,2.1-4.2,2.5
			c-1.6,0.5-3.2,0.7-4.9,0.7c-1.3,0-2.5-0.2-3.6-0.5c-1.1-0.3-2.1-0.8-2.9-1.5c-0.8-0.7-1.5-1.5-2-2.5c-0.5-1-0.7-2.2-0.7-3.6
			c0-1.5,0.3-2.8,0.8-3.8c0.5-1,1.2-1.8,2.1-2.4c0.8-0.6,1.8-1,2.9-1.3c1.1-0.3,2.2-0.5,3.3-0.7c1.1-0.2,2.2-0.3,3.3-0.4
			c1.1-0.1,2-0.3,2.9-0.5c0.8-0.2,1.5-0.5,2-0.9c0.5-0.4,0.7-1,0.7-1.7c0-0.8-0.1-1.4-0.4-1.9c-0.3-0.5-0.6-0.8-1-1.1
			c-0.4-0.3-0.9-0.4-1.5-0.5c-0.6-0.1-1.2-0.1-1.8-0.1c-1.5,0-2.6,0.3-3.4,0.9c-0.8,0.6-1.3,1.7-1.5,3.1H416.5z M433.6,520.4
			c-0.3,0.3-0.7,0.5-1.2,0.7c-0.5,0.2-1,0.3-1.5,0.4c-0.5,0.1-1.1,0.2-1.7,0.3c-0.6,0.1-1.2,0.2-1.8,0.3c-0.6,0.1-1.1,0.2-1.6,0.4
			c-0.5,0.2-1,0.4-1.4,0.7c-0.4,0.3-0.7,0.7-1,1.1c-0.2,0.5-0.4,1-0.4,1.7c0,0.7,0.1,1.2,0.4,1.7c0.2,0.5,0.6,0.8,1,1.1
			c0.4,0.3,0.9,0.4,1.5,0.5c0.6,0.1,1.1,0.2,1.7,0.2c1.5,0,2.6-0.2,3.4-0.7c0.8-0.5,1.4-1.1,1.8-1.7c0.4-0.7,0.6-1.4,0.7-2.1
			c0.1-0.7,0.1-1.2,0.1-1.7V520.4z"/>
		<path fill="#414042" d="M454.3,541.6c-1.4,0.9-3.4,1.4-5.9,1.4c-0.8,0-1.5,0-2.3-0.1c-0.7-0.1-1.5-0.1-2.3-0.2v-6.1
			c0.7,0.1,1.4,0.1,2.1,0.2c0.7,0.1,1.5,0.1,2.2,0.1c1-0.1,1.7-0.5,2.2-1.1c0.5-0.7,0.7-1.4,0.7-2.2c0-0.6-0.1-1.1-0.3-1.7
			l-9.4-25.2h7.9l6.1,18.4h0.1l5.9-18.4h7.6l-11.2,30.2C456.8,539.1,455.7,540.7,454.3,541.6z"/>
	</g>
	<g>
		<path fill="#49A9DF" d="M469.8,511.6c0.6-1.1,1.3-2.1,2.3-2.8c1-0.7,2.1-1.3,3.4-1.6c1.3-0.3,2.7-0.5,4.3-0.5
			c1.2,0,2.4,0.1,3.5,0.3c1.2,0.2,2.2,0.7,3.2,1.3c0.9,0.6,1.7,1.5,2.3,2.6c0.6,1.1,0.9,2.6,0.9,4.4v14.3c0,1.3,0.6,2,1.9,2
			c0.4,0,0.7-0.1,1-0.2v2.8c-0.4,0.1-0.7,0.1-1,0.2c-0.3,0-0.7,0.1-1.1,0.1c-0.8,0-1.5-0.1-2-0.3c-0.5-0.2-0.9-0.5-1.2-1
			c-0.3-0.4-0.5-0.9-0.5-1.5c-0.1-0.6-0.1-1.2-0.1-1.9h-0.1c-0.6,0.9-1.2,1.6-1.8,2.3c-0.6,0.7-1.3,1.2-2,1.7
			c-0.7,0.5-1.6,0.8-2.6,1c-1,0.2-2.1,0.4-3.4,0.4c-1.2,0-2.4-0.1-3.5-0.4c-1.1-0.3-2-0.8-2.9-1.4c-0.8-0.6-1.5-1.5-1.9-2.4
			c-0.5-1-0.7-2.2-0.7-3.5c0-1.9,0.4-3.3,1.2-4.4c0.8-1.1,1.9-1.9,3.3-2.4s2.9-0.9,4.6-1.2c1.7-0.2,3.5-0.4,5.2-0.7
			c0.7-0.1,1.3-0.2,1.8-0.3c0.5-0.1,1-0.3,1.3-0.5c0.3-0.3,0.6-0.6,0.8-1.1c0.2-0.5,0.3-1,0.3-1.8c0-1.1-0.2-2-0.5-2.7
			c-0.4-0.7-0.9-1.3-1.5-1.7c-0.6-0.4-1.4-0.7-2.2-0.9c-0.9-0.2-1.8-0.2-2.7-0.2c-2.1,0-3.8,0.5-5.1,1.5c-1.3,1-2,2.6-2.1,4.8h-3.3
			C468.9,514.1,469.2,512.8,469.8,511.6z M486.2,519.7c-0.2,0.4-0.6,0.7-1.2,0.8c-0.6,0.2-1.1,0.3-1.6,0.4c-1.4,0.2-2.8,0.5-4.3,0.7
			c-1.5,0.2-2.8,0.5-4,0.9c-1.2,0.4-2.2,0.9-3,1.6c-0.8,0.7-1.2,1.7-1.2,3c0,0.8,0.2,1.6,0.5,2.2c0.3,0.6,0.8,1.2,1.3,1.7
			c0.6,0.5,1.2,0.8,1.9,1.1c0.7,0.2,1.5,0.4,2.2,0.4c1.2,0,2.4-0.2,3.6-0.6c1.1-0.4,2.1-0.9,3-1.7c0.8-0.7,1.5-1.6,2-2.7
			c0.5-1,0.8-2.2,0.8-3.5v-4.3H486.2z"/>
		<path fill="#49A9DF" d="M497.1,507.5v5.1h0.1c0.8-1.9,2-3.3,3.7-4.3c1.7-1,3.7-1.5,5.9-1.5c2,0,3.8,0.4,5.3,1.1
			c1.5,0.8,2.8,1.8,3.8,3.1c1,1.3,1.8,2.8,2.2,4.5c0.5,1.7,0.7,3.5,0.7,5.4c0,1.9-0.2,3.7-0.7,5.4c-0.5,1.7-1.2,3.2-2.2,4.5
			c-1,1.3-2.3,2.3-3.8,3.1c-1.5,0.7-3.3,1.1-5.3,1.1c-1,0-1.9-0.1-2.9-0.4c-1-0.2-1.9-0.6-2.7-1.1c-0.8-0.5-1.6-1.1-2.2-1.8
			c-0.6-0.7-1.1-1.6-1.5-2.5h-0.1v15h-3.3v-36.7H497.1z M515.1,516.8c-0.3-1.4-0.9-2.6-1.6-3.7c-0.7-1.1-1.6-2-2.7-2.6
			c-1.1-0.7-2.4-1-4-1c-1.8,0-3.3,0.3-4.5,0.9c-1.2,0.6-2.2,1.5-2.9,2.5c-0.7,1-1.2,2.3-1.5,3.6c-0.3,1.4-0.4,2.8-0.4,4.4
			c0,1.4,0.2,2.8,0.5,4.1c0.3,1.4,0.9,2.6,1.6,3.7c0.7,1.1,1.7,2,2.9,2.6c1.2,0.7,2.7,1,4.4,1c1.6,0,2.9-0.3,4-1
			c1.1-0.7,2-1.6,2.7-2.6c0.7-1.1,1.2-2.3,1.6-3.7c0.3-1.4,0.5-2.7,0.5-4.1C515.6,519.5,515.4,518.1,515.1,516.8z"/>
		<path fill="#49A9DF" d="M525,497.2v5.3h-3.3v-5.3H525z M525,507.5v26.9h-3.3v-26.9H525z"/>
	</g>
</g>
</svg>
