<?xml version="1.0" encoding="UTF-8"?>
<svg width="269px" height="36px" viewBox="0 0 269 36" version="1.1" xmlns="http://www.w3.org/2000/svg" xmlns:xlink="http://www.w3.org/1999/xlink">
    <g id="Page-1" stroke="none" stroke-width="1" fill="none" fill-rule="evenodd">
        <g transform="translate(0.000000, -1.000000)" id="GatewayAPI_nav-logo-1">
            <g>
                <g id="Layer_1-2">
                    <g id="Group_224" transform="translate(0.000000, 1.000000)">
                        <path d="M0,23.9 C0,25.7 1.4,27.2 3.2,27.3 L28.9,27.3 L0,0.6 L0,23.9 Z" id="Path_445" fill="#0025BF"></path>
                        <polygon id="Path_446" fill="#0B51FF" points="12.8 0.6 0 0.6 29 27.4 38 35.7 38 23.9"></polygon>
                        <polygon id="Path_447" fill="#067DFF" points="12.8 0.6 38 23.9 38 12.1 25.6 0.6"></polygon>
                        <path d="M34.8,0.6 L25.6,0.6 L38,12.1 L38,4 C38.1,2.2 36.8,0.7 35,0.6 L34.8,0.6 Z" id="Path_448" fill="#03A5FF"></path>
                    </g>
                    <g id="Group_54" transform="translate(49.000000, 0.000000)" fill="#323C4A">
                        <path d="M12.6,7.7 L12.6,9.6 C11.4,8.1 9.7,7.3 7.8,7.4 C3.9,7.4 0.7,10.5 0.7,14.4 C0.7,14.4 0.7,14.4 0.7,14.5 L0.7,15 C0.5,18.9 3.5,22.3 7.4,22.5 L7.8,22.5 C9.6,22.5 11.4,21.7 12.6,20.3 L12.6,20.5 C12.6,24.6 10.9,26.2 8.1,26.2 C6.5,26.2 5,25.3 4.2,23.9 L1.2,25.3 C2.5,27.9 5.1,29.6 8,29.5 C12.9,29.5 16.1,26.7 16.1,20.2 L16.1,7.8 L12.6,7.7 Z M8.4,19.1 C6.2,19.1 4.4,17.4 4.4,15.2 L4.4,15 L4.4,14.9 C4.3,12.7 6,10.9 8.2,10.8 L8.3,10.8 L8.4,10.8 C10.7,10.8 12.6,12.7 12.6,15 C12.5,17.3 10.7,19.1 8.4,19.1 L8.4,19.1 Z" id="Path_105"></path>
                        <path d="M29.6,7.7 L29.6,9.6 C28.5,8.1 26.7,7.3 24.8,7.4 C20.6,7.7 17.5,11.2 17.8,15.4 C18,19.2 21.1,22.2 24.9,22.4 C26.8,22.5 28.6,21.6 29.7,20.1 L29.7,22 L33.3,22 L33.3,7.6 L29.6,7.6 L29.6,7.7 L29.6,7.7 Z M25.4,19.1 C23.2,19.1 21.4,17.4 21.4,15.2 L21.4,15 L21.4,14.9 C21.3,12.7 23,10.9 25.2,10.8 L25.3,10.8 L25.4,10.8 C27.7,10.8 29.5,12.7 29.5,15 L29.5,15 C29.4,17.3 27.6,19.1 25.4,19.1 L25.4,19.1 Z" id="Path_106"></path>
                        <polygon id="Path_107" points="41.7 7.7 41.7 2.4 38.1 5.2 38.1 7.7 35.5 7.7 35.5 10.6 38.1 10.6 38.1 22.1 41.7 22.1 41.7 10.6 44.8 10.6 44.8 7.7"></polygon>
                        <path d="M60.7,14.8 C60.9,10.9 57.8,7.6 53.9,7.4 L53.3,7.4 C49.2,7.4 45.8,10.8 45.8,14.9 C45.8,19 49.2,22.4 53.3,22.4 L53.3,22.4 C55.9,22.5 58.3,21.3 59.8,19.2 L57.4,17.4 C56.4,18.6 55,19.2 53.5,19.2 C51.6,19.4 49.8,18.1 49.4,16.2 L60.5,16.2 C60.6,15.8 60.7,15.3 60.7,14.8 Z M49.4,13.7 C49.7,11.8 51.4,10.4 53.3,10.6 C55.1,10.4 56.8,11.7 57,13.5 L57,13.7 L49.4,13.7 Z" id="Path_108"></path>
                        <polygon id="Path_109" points="79.9 7.7 76.8 17 73.7 7.7 70.5 7.7 67.4 17 64.3 7.7 60.4 7.7 65.7 22.1 68.7 22.1 71.9 12.2 75.3 22.1 78.3 22.1 83.5 7.7"></polygon>
                        <path d="M95.7,7.7 L95.7,9.6 C94.6,8.1 92.8,7.3 90.9,7.4 C86.7,7.7 83.6,11.2 83.9,15.4 C84.1,19.2 87.2,22.2 91,22.4 C92.9,22.5 94.7,21.6 95.8,20.1 L95.8,22 L99.4,22 L99.4,7.6 L95.7,7.6 L95.7,7.7 Z M91.5,19.1 C89.3,19.1 87.5,17.4 87.5,15.2 L87.5,15 L87.5,14.9 C87.4,12.7 89.1,10.9 91.3,10.8 L91.4,10.8 L91.5,10.8 C93.8,10.8 95.7,12.6 95.7,14.9 C95.7,17.2 93.9,19.1 91.6,19.1 L91.5,19.1 Z" id="Path_110"></path>
                        <polygon id="Path_111" points="112.5 7.7 108.8 16.8 105.1 7.7 101.2 7.7 106.9 21.1 103.7 29.1 107.5 29.1 116.5 7.6"></polygon>
                        <path d="M129.8,7.7 L129.8,10.5 C128.6,8.5 126.4,7.3 124.1,7.4 C120,7.5 116.7,10.9 116.8,15.1 C116.9,19.1 120.1,22.3 124.1,22.4 C126.4,22.5 128.6,21.3 129.8,19.3 L129.8,22.1 L131.8,22.1 L131.8,7.7 L129.8,7.7 Z M124.2,20.6 C121.1,20.6 118.7,18.1 118.7,15 L118.7,14.9 C118.6,11.9 121.1,9.4 124.1,9.3 L124.2,9.3 C127.3,9.3 129.8,11.7 129.8,14.8 L129.8,15 C129.9,18 127.5,20.5 124.4,20.6 L124.2,20.6 Z" id="Path_112"></path>
                        <path d="M143.2,7.4 C140.9,7.3 138.7,8.5 137.5,10.5 L137.5,7.7 L135.5,7.7 L135.5,29.1 L137.5,29.1 L137.5,19.3 C138.7,21.3 140.9,22.5 143.2,22.4 C147.3,22.3 150.6,18.9 150.5,14.7 C150.5,10.7 147.2,7.5 143.2,7.4 Z M143.1,20.6 C140,20.7 137.5,18.3 137.4,15.2 L137.4,15.1 C137.3,12 139.8,9.4 142.9,9.4 C146,9.3 148.6,11.8 148.6,14.9 C148.6,14.9 148.6,14.9 148.6,15 L148.6,15.2 C148.6,18.1 146.2,20.6 143.1,20.6 L143.1,20.6 Z" id="Path_113"></path>
                        <path d="M153.3,7.7 L153.3,22.1 L155.3,22.1 L155.3,7.7 L153.3,7.7 Z M154.2,1 C153.5,0.9 152.8,1.4 152.7,2.1 L152.7,2.3 C152.6,3 153.1,3.7 153.8,3.8 L154,3.8 L154.2,3.8 C154.9,3.9 155.6,3.4 155.7,2.7 L155.7,2.5 C155.8,1.8 155.3,1.1 154.6,1 L154.4,1 L154.2,1 L154.2,1 Z" id="Path_114"></path>
                    </g>
                </g>
                <g id="Group" transform="translate(217.000000, 6.000000)">
                    <rect id="Rectangle-path" fill="#F4B723" x="0" y="0" width="52" height="17.6487805"></rect>
                    <g id="Shape" transform="translate(9.454546, 4.829268)" fill="#FFFFFF">
                        <path d="M6.52363636,1.31707318 C7.28,1.97560975 7.70545454,2.89756098 7.70545454,4.08292682 C7.70545454,5.26829268 7.32727273,6.19024391 6.57090909,6.89268293 C5.81454546,7.59512195 4.63272727,7.94634146 3.07272727,7.94634146 L0.283636364,7.94634146 L0.283636364,0.351219512 L3.16727273,0.351219512 C4.63272727,0.351219512 5.76727273,0.658536586 6.52363636,1.31707318 Z M5.2,5.83902439 C5.62545454,5.44390244 5.86181819,4.87317073 5.86181819,4.12682927 C5.86181819,3.3804878 5.62545454,2.80975609 5.2,2.41463414 C4.77454546,2.0195122 4.06545454,1.8 3.12,1.8 L2.08,1.8 L2.08,6.40975609 L3.21454546,6.40975609 C4.11272727,6.45365854 4.72727273,6.23414634 5.2,5.83902439 Z"></path>
                        <path d="M16.1672727,6.89268293 C15.3636364,7.63902439 14.3236364,8.03414634 13.0945454,8.03414634 C11.8654545,8.03414634 10.8727273,7.63902439 10.0218182,6.89268293 C9.21818181,6.14634146 8.79272727,5.22439025 8.79272727,4.08292682 C8.79272727,2.98536586 9.21818181,2.0195122 10.0218182,1.27317073 C10.8254545,0.526829268 11.8654545,0.131707318 13.0945454,0.131707318 C14.3236364,0.131707318 15.3163636,0.526829268 16.1672727,1.27317073 C16.9709091,2.0195122 17.3963636,2.94146341 17.3963636,4.08292682 C17.3963636,5.22439025 16.9709091,6.14634146 16.1672727,6.89268293 Z M15.5527273,4.08292682 C15.5527273,3.42439025 15.3163636,2.80975609 14.8436364,2.37073171 C14.3709091,1.88780488 13.8036364,1.66829268 13.1418181,1.66829268 C12.48,1.66829268 11.8654545,1.88780488 11.44,2.37073171 C10.9672727,2.85365854 10.7309091,3.42439025 10.7309091,4.08292682 C10.7309091,4.74146341 10.9672727,5.35609756 11.44,5.79512195 C11.9127273,6.27804878 12.48,6.49756098 13.1418181,6.49756098 C13.8036364,6.49756098 14.4181819,6.27804878 14.8436364,5.79512195 C15.3163636,5.35609756 15.5527273,4.78536586 15.5527273,4.08292682 Z"></path>
                        <path d="M22.6909091,6.45365854 C23.5890909,6.45365854 24.2981819,6.10243902 24.9127273,5.44390244 L26.0945454,6.54146341 C25.1490909,7.50731707 24.0618181,7.99024391 22.8327273,7.99024391 C21.5563636,7.99024391 20.5163636,7.63902439 19.7127273,6.89268293 C18.9090909,6.14634146 18.4836364,5.22439025 18.4836364,4.08292682 C18.4836364,2.94146341 18.9090909,2.0195122 19.7127273,1.27317073 C20.5636364,0.526829268 21.5563636,0.131707318 22.7381819,0.131707318 C24.0618181,0.131707318 25.1963636,0.614634146 26.0945454,1.53658536 L24.96,2.72195122 C24.3927273,2.06341464 23.6836364,1.71219512 22.7854546,1.71219512 C22.0763636,1.71219512 21.5090909,1.93170732 21.0363636,2.32682927 C20.5636364,2.72195122 20.3272727,3.29268293 20.3272727,3.99512195 C20.3272727,4.69756098 20.5636364,5.26829268 21.0363636,5.70731707 C21.4618181,6.23414634 22.0290909,6.45365854 22.6909091,6.45365854 Z"></path>
                        <path d="M29.4036364,1.84390244 C29.2145454,1.97560975 29.12,2.15121952 29.12,2.37073171 C29.12,2.59024391 29.2145454,2.76585366 29.4509091,2.89756098 C29.6872727,3.02926829 30.16,3.16097561 30.9163636,3.3804878 C31.6727273,3.55609756 32.2872727,3.8195122 32.7127273,4.17073171 C33.1381819,4.52195122 33.3745454,5.04878048 33.3745454,5.70731707 C33.3745454,6.36585366 33.0909091,6.93658536 32.5709091,7.37560975 C32.0036364,7.81463414 31.2945454,7.99024391 30.3963636,7.99024391 C29.12,7.99024391 27.9381819,7.55121952 26.8981819,6.67317073 L27.9854546,5.44390244 C28.8836364,6.14634146 29.6872727,6.49756098 30.4436364,6.49756098 C30.7745454,6.49756098 31.0581819,6.40975609 31.2472727,6.27804878 C31.4363636,6.14634146 31.5309091,5.97073171 31.5309091,5.75121952 C31.5309091,5.53170732 31.4363636,5.35609756 31.2472727,5.22439025 C31.0581819,5.09268293 30.6327273,4.96097561 30.0654546,4.82926829 C29.12,4.60975609 28.4109091,4.34634146 27.9854546,3.99512195 C27.56,3.64390244 27.3236364,3.11707318 27.3236364,2.41463414 C27.3236364,1.71219512 27.6072727,1.14146341 28.1745454,0.746341464 C28.7418181,0.351219512 29.4509091,0.175609756 30.2545454,0.175609756 C30.8218181,0.175609756 31.3418181,0.263414634 31.9090909,0.439024391 C32.4763636,0.614634146 32.9490909,0.87804878 33.3272727,1.18536585 L32.3818181,2.41463414 C31.6727273,1.93170732 30.9163636,1.66829268 30.16,1.66829268 C29.8290909,1.66829268 29.5927273,1.71219512 29.4036364,1.84390244 Z"></path>
                    </g>
                </g>
            </g>
        </g>
    </g>
</svg>